PathFileType	3	(X/Y/Z)	E:\ViconData\BIOM9541 2025\Week 7\Wed1100\Hanif  deep squat 2-5 Squat 01.trc
DataRate	CameraRate	NumFrames	NumMarkers	Units	OrigDataRate	OrigDataStartFrame	OrigNumFrames
200.0	200.0	20	19	mm	200.0	335	1338	
Frame#	Time	C7			CLAV			RBAK			LASI			RASI			LPSI			RPSI			LTHI			LKNE			LTIB			LANK			LHEE			LTOE			RTHI			RKNE			RTIB			RANK			RHEE			RTOE			
		X1	Y1	Z1	X2	Y2	Z2	X3	Y3	Z3	X4	Y4	Z4	X5	Y5	Z5	X6	Y6	Z6	X7	Y7	Z7	X8	Y8	Z8	X9	Y9	Z9	X10	Y10	Z10	X11	Y11	Z11	X12	Y12	Z12	X13	Y13	Z13	X14	Y14	Z14	X15	Y15	Z15	X16	Y16	Z16	X17	Y17	Z17	X18	Y18	Z18	X19	Y19	Z19	
335	1.67	297.91092	1186.9424	-1207.0376	152.82555	1106.0261	-1197.314	318.07269	1109.0072	-1355.0865	255.8181	746.60938	-1074.5436	246.69626	760.37683	-1335.0453	419.72504	811.77417	-1160.127	418.93259	808.00665	-1233.4072	195.54857	518.84167	-922.55182	136.8194	389.60657	-896.43365	230.83725	201.09311	-916.31635	299.65338	65.687828	-961.8772	320.34119	51.969616	-1025.9845	163.34622	38.756256	-930.75409	284.07974	654.42426	-1421.0549	154.59663	386.3945	-1507.9193	184.81277	305.27457	-1509.3458	291.7482	72.068024	-1435.4806	312.06107	51.883148	-1363.3647	164.71603	40.655663	-1477.6244
336	1.675	298.40189	1192.1809	-1207.2089	153.21217	1111.7137	-1197.4187	318.46027	1114.1316	-1355.1786	254.77812	751.8996	-1074.5398	245.78094	765.45935	-1335.1875	418.75043	816.88007	-1159.9463	418.13007	812.8255	-1233.7059	196.40329	521.04364	-923.44623	139.00797	391.00058	-897.99036	231.94324	201.74734	-916.84631	299.71439	65.648895	-961.75079	320.68927	52.02013	-1025.96	163.35213	38.796822	-930.67535	283.59396	657.61304	-1420.6268	156.93719	387.90494	-1506.4778	186.92783	306.5304	-1508.2015	292.06512	71.83725	-1435.2716	312.15829	51.81723	-1363.3599	164.74249	40.70219	-1477.577
337	1.68	298.80206	1197.35	-1207.2872	153.56721	1117.2566	-1197.3202	318.83508	1119.1699	-1355.2129	253.81116	756.87	-1074.6815	244.96086	770.44409	-1335.2217	417.79883	821.9881	-1160.0112	417.06247	817.83386	-1233.5985	197.2498	523.10565	-924.44293	141.15932	392.28632	-899.5954	233.11542	202.4236	-917.45514	299.68588	64.24765	-963.84082	320.98874	52.192677	-1025.9869	163.41142	38.858112	-930.60248	282.99255	661.38739	-1420.7963	159.28108	389.35394	-1505.0173	189.00375	307.74924	-1507.0568	292.3075	71.888329	-1435.3384	312.30704	52.477089	-1362.6265	164.7583	40.752926	-1477.5823
338	1.685	299.21204	1202.5176	-1207.3412	153.98035	1122.7747	-1197.4802	319.1889	1124.166	-1355.2107	252.79433	762.09155	-1074.7887	243.95663	775.42072	-1335.3073	416.8819	826.88531	-1160.1458	416.29083	822.73486	-1233.8799	198.11024	525.20154	-925.39734	143.43727	393.71655	-901.14575	234.32619	203.0386	-918.1073	299.87796	64.211266	-963.71783	321.23679	52.167053	-1025.9308	163.55489	38.81707	-930.50806	282.53802	664.44788	-1420.3556	161.70462	390.74561	-1503.5272	191.13368	308.84213	-1505.77	292.54468	72.057846	-1435.4822	312.43997	52.434467	-1362.7173	164.80322	40.77095	-1477.6282
339	1.69	299.59933	1207.5309	-1207.5013	154.31224	1128.1378	-1197.5358	319.55081	1129.0411	-1355.3239	251.88577	767.00598	-1074.9608	243.18103	780.14319	-1335.3564	415.97189	831.75903	-1160.5477	415.47382	827.98254	-1233.921	198.97914	527.36542	-926.47217	145.69299	395.16388	-902.77551	235.53964	203.78722	-918.72504	300.10098	64.180023	-963.62708	321.46915	52.109615	-1025.8234	163.70525	38.783882	-930.48608	281.95044	667.90613	-1420.5356	164.07892	392.03561	-1502.0005	193.25543	309.90433	-1504.5959	292.77777	72.203079	-1435.646	312.52744	52.390537	-1362.7654	164.82205	40.693405	-1477.6257
340	1.695	299.94357	1212.4456	-1207.5911	154.62157	1133.3756	-1197.7648	319.95206	1133.9098	-1355.3993	250.80899	771.98572	-1074.8335	242.16566	784.90942	-1335.3959	415.09805	836.50616	-1160.9214	414.63007	832.68408	-1234.1888	200.03963	529.95892	-927.29681	148.04872	396.51767	-904.44934	236.77063	204.48911	-919.33325	300.30243	64.170227	-963.58136	321.65912	52.051235	-1025.7142	163.87827	38.747238	-930.3938	281.49582	670.84717	-1420.069	166.50047	393.31326	-1500.4756	195.36572	310.94424	-1503.3237	292.8559	72.148598	-1435.605	312.72964	51.602966	-1363.7882	164.81438	40.646427	-1477.6656
341	1.7	300.23917	1217.2905	-1207.6703	154.95412	1138.4971	-1197.8356	320.24362	1138.6934	-1355.3328	249.87479	776.79041	-1074.8932	241.29227	789.64758	-1335.3955	414.17361	841.30377	-1160.9735	413.48111	837.61066	-1233.877	200.88094	531.50836	-928.6778	150.39632	398.00214	-905.92688	237.99666	205.16968	-919.89496	300.50983	64.107346	-963.55878	321.83606	52.03616	-1025.5634	163.75919	38.55698	-930.56	280.91589	674.10693	-1419.9033	168.88487	394.73856	-1498.926	197.5419	312.04047	-1502.0723	293.08609	72.144707	-1435.6006	312.8642	51.55286	-1363.8671	164.79492	40.694839	-1477.6891
342	1.705	300.50095	1222.0522	-1207.6675	155.30098	1143.536	-1198.0139	320.63242	1143.3981	-1355.34	248.91742	781.5296	-1074.9153	240.37819	794.24756	-1335.3777	413.19531	845.97693	-1160.4519	412.77899	841.9931	-1234.3318	201.89381	533.50134	-929.82507	152.82938	399.28552	-907.69745	239.26607	205.76604	-920.59473	300.69092	64.013466	-963.5022	322.01828	52.083988	-1025.4517	163.79393	38.537693	-930.47675	280.31583	677.58392	-1419.9686	171.32431	396.1304	-1497.3329	199.72874	313.20425	-1500.8325	293.33838	72.220963	-1435.6111	312.92899	51.566162	-1363.8055	164.75899	40.808659	-1477.7301
343	1.71	300.81952	1226.7358	-1207.8247	155.58008	1148.4861	-1198.0153	321.06839	1147.9697	-1355.3682	247.9649	786.13324	-1074.95	239.48984	798.87152	-1335.4059	412.28186	850.60699	-1160.4788	411.8299	846.38	-1234.4102	202.88626	535.45624	-930.88452	155.21901	400.61383	-909.32056	240.64084	206.38148	-921.30426	300.9924	63.995407	-963.41321	322.23065	52.015572	-1025.2991	164.39015	38.469723	-930.24585	279.87036	680.42139	-1419.5106	173.86221	397.49521	-1495.7687	201.99893	314.31653	-1499.4871	293.55832	72.264633	-1435.6396	313.09	51.537327	-1363.912	164.75983	40.804028	-1477.7166
344	1.715	301.06079	1231.2301	-1207.8578	155.79292	1153.2501	-1198.1213	321.37881	1152.3885	-1355.3391	246.98827	790.84229	-1074.967	238.61105	803.24042	-1335.3923	411.39459	855.03638	-1160.5647	410.9469	850.96503	-1234.4742	203.89928	537.38129	-931.94763	157.71677	401.97473	-910.91113	241.90791	207.02299	-921.94067	301.20084	63.898666	-963.44354	322.39734	51.779217	-1025.0933	163.97615	38.484268	-930.51965	279.32504	683.37347	-1419.2711	176.39761	398.72949	-1494.1339	204.29945	315.30896	-1498.1895	293.79135	72.240654	-1435.6495	313.18887	51.504799	-1364.0353	164.7581	40.74332	-1477.7336
345	1.72	301.36307	1235.8199	-1207.9445	156.03383	1157.9681	-1198.3154	321.7088	1156.8442	-1355.2388	246.08821	795.29657	-1075.066	237.63107	807.6955	-1335.3977	410.47968	859.3515	-1160.7885	409.89148	855.67419	-1234.2352	204.9471	539.23407	-933.02954	160.19392	403.23099	-912.63538	243.21281	207.63994	-922.63995	301.47354	63.905075	-963.3642	322.60059	51.690693	-1024.9912	163.99454	38.512356	-930.57996	278.76215	686.57758	-1419.3119	178.98824	399.94562	-1492.5181	206.59708	316.22537	-1496.7988	294.09967	71.868713	-1435.4304	313.35065	51.408588	-1364.2533	164.73856	40.678722	-1477.7487
346	1.725	301.54758	1240.2246	-1207.9646	156.20959	1162.5958	-1198.5275	322.056	1161.2375	-1355.2772	245.06133	799.72974	-1075.0817	236.63719	812.03851	-1335.4277	409.60184	863.61987	-1160.9897	409.01694	859.93683	-1234.3928	205.99774	541.07928	-934.14648	162.72731	404.534	-914.39069	244.50723	208.26764	-923.32379	301.58054	63.806019	-963.39154	322.71533	51.661499	-1024.9159	163.94994	38.516148	-930.5528	278.27979	689.18719	-1418.7488	181.46065	401.18936	-1490.8118	208.82405	317.26935	-1495.4803	294.28525	72.036133	-1435.5186	313.51373	51.339104	-1364.4415	164.70184	40.692165	-1477.77
347	1.73	301.78619	1244.567	-1208.0137	156.43323	1167.0802	-1198.4335	322.34509	1165.5234	-1355.2161	244.19466	803.98883	-1075.188	235.68518	816.2525	-1335.4597	408.63306	867.81866	-1160.9094	408.27634	863.92163	-1234.7512	207.09969	543.25751	-934.89703	165.28003	405.72211	-916.10193	245.86104	208.85289	-924.05219	301.7886	63.729755	-963.33337	322.85687	51.663067	-1024.8193	163.97598	38.558002	-930.5899	277.69467	692.0332	-1418.4259	184.04718	402.53998	-1489.1978	211.11232	318.30856	-1494.1016	294.55884	72.08165	-1435.5011	313.63452	51.280365	-1364.561	164.65395	40.79245	-1477.7784
348	1.735	302.06509	1248.9347	-1208.1232	156.58754	1171.4392	-1198.4084	322.60458	1169.7826	-1355.0938	243.19324	808.23932	-1075.2336	234.7206	820.40283	-1335.4526	407.66736	871.94757	-1160.9283	407.30826	867.90906	-1234.8129	208.15836	544.44568	-936.45392	167.78079	406.85349	-917.867	247.19153	209.43916	-924.79907	301.98163	63.690437	-963.28033	322.94952	51.59663	-1024.7052	164.00465	38.565422	-930.60004	277.12604	695.13556	-1418.3928	186.60553	403.80118	-1487.4091	213.3707	319.32413	-1492.5962	294.85223	72.156624	-1435.4869	313.71848	51.265701	-1364.5537	164.6396	40.900066	-1477.8324
349	1.74	302.30316	1252.9437	-1208.2457	156.6512	1175.8982	-1198.817	322.87671	1173.7167	-1355.1362	242.17386	812.30811	-1075.179	233.82249	824.3172	-1335.4475	406.77515	875.94177	-1161.2596	406.35025	871.85626	-1234.8566	209.40132	546.42786	-937.52612	170.34192	408.06509	-919.70728	248.50812	209.96663	-925.48413	302.21112	63.616806	-963.31512	323.10583	51.579872	-1024.6475	164.08089	38.552898	-930.65039	276.6824	697.46436	-1417.7876	189.27827	404.99539	-1485.7642	215.70168	320.24405	-1491.2296	294.98608	72.422562	-1435.6692	313.87006	51.1175	-1364.713	164.66454	40.878544	-1477.8394
350	1.745	302.53476	1256.882	-1208.2646	156.78543	1180.0638	-1198.9437	323.22235	1177.636	-1355.121	241.18782	816.38141	-1075.1708	232.87474	828.1886	-1335.4235	405.86368	879.73871	-1161.3051	405.14563	875.94873	-1234.5255	210.31903	547.67395	-938.75012	172.93222	409.2164	-921.44904	249.85544	210.63914	-926.20221	302.43729	63.60186	-963.3324	323.26709	51.467388	-1024.5632	164.13972	38.532021	-930.67371	276.2041	699.98553	-1417.397	191.9276	406.07199	-1483.9645	218.07292	321.08224	-1489.7399	295.30673	72.398285	-1435.6313	314.06851	51.01733	-1364.918	164.75603	40.829697	-1477.8292
351	1.75	302.85001	1260.6996	-1208.3721	156.91112	1184.0402	-1199.1193	323.46017	1181.3986	-1354.9926	240.23196	820.27295	-1075.1307	231.94905	831.84174	-1335.3447	404.91653	883.50781	-1161.3076	404.5126	879.55585	-1234.994	211.54326	549.50623	-939.8374	175.52785	410.24365	-923.31561	251.19626	211.1803	-926.88513	302.68088	63.554131	-963.38605	323.39795	51.346058	-1024.3746	164.1967	38.511814	-930.69757	275.71393	702.67316	-1417.256	194.61665	407.28079	-1482.26	220.44165	321.98749	-1488.2948	295.58789	72.348	-1435.5835	314.27524	50.969097	-1365.0099	164.79858	40.78569	-1477.7681
352	1.755	303.1174	1264.3988	-1208.436	157.34932	1187.65	-1198.8096	323.68393	1185.0482	-1354.9681	239.28508	824.01538	-1075.1548	230.96207	835.51379	-1335.2987	403.96396	887.16913	-1161.1641	403.34644	883.47821	-1234.6594	212.60562	550.66882	-941.19574	178.15701	411.31732	-925.21619	252.53712	211.69279	-927.57617	302.87512	63.524067	-963.27179	323.56042	51.266068	-1024.235	164.23251	38.445602	-930.63586	275.24268	704.87225	-1416.5249	197.26974	408.45938	-1480.4176	222.77312	322.86731	-1486.7557	295.93024	72.098885	-1435.3101	314.44595	50.936749	-1365.0321	164.85211	40.786011	-1477.6865
353	1.76	303.37759	1268.0121	-1208.4529	157.32602	1191.7125	-1199.0687	323.93256	1188.6227	-1354.8768	238.35144	827.60712	-1075.1783	230.01314	838.98096	-1335.2109	402.96164	890.74591	-1160.8651	402.3689	886.84601	-1234.7712	213.82387	552.31659	-942.2821	180.76579	412.2612	-927.0799	253.87177	212.09381	-928.35907	302.98459	63.506298	-963.16949	323.70367	51.2327	-1024.0988	164.28719	38.394817	-930.62317	274.78595	707.14618	-1416.1134	199.9509	409.68127	-1478.5013	225.14671	323.75052	-1485.1854	296.22256	72.155701	-1435.2708	314.62625	50.882843	-1364.9861	164.9113	40.838772	-1477.5809
354	1.765	303.63736	1271.4729	-1208.4337	157.49648	1195.4889	-1199.1997	324.25449	1192.137	-1354.8762	237.27365	831.23248	-1074.9742	229.06105	842.41974	-1335.1799	402.05063	894.24988	-1161.0148	401.52805	890.09479	-1234.968	214.95107	553.76508	-943.38361	183.2928	413.22989	-928.98407	255.17598	212.56779	-929.14105	303.17133	63.470268	-963.07959	323.91553	51.196163	-1023.9912	164.3101	38.356319	-930.61029	274.34381	709.66522	-1415.9448	202.61217	410.82187	-1476.6006	227.57202	324.56216	-1483.6681	296.57501	72.162354	-1435.1838	314.85626	50.811096	-1365.0392	164.99417	40.81448	-1477.4559
